<svg width="71" height="70" viewBox="0 0 71 70" fill="none" xmlns="http://www.w3.org/2000/svg">
<rect x="0.666687" width="70" height="70" rx="6" fill="#193766"/>
<path d="M38.4792 29.375V43.8733C38.4792 44.0276 38.5173 44.1796 38.5901 44.3156C38.6629 44.4517 38.7682 44.5677 38.8967 44.6533L40.1848 45.5121C40.3098 45.5954 40.453 45.6475 40.6023 45.6639C40.7517 45.6803 40.9028 45.6606 41.0429 45.6065C41.183 45.5523 41.3081 45.4652 41.4075 45.3526C41.507 45.24 41.5779 45.1052 41.6143 44.9594L43.1667 38.75" stroke="white" stroke-width="3" stroke-linecap="round" stroke-linejoin="round"/>
<path d="M43.1667 38.75C44.4099 38.75 45.6022 38.2561 46.4813 37.3771C47.3603 36.498 47.8542 35.3057 47.8542 34.0625C47.8542 32.8193 47.3603 31.627 46.4813 30.7479C45.6022 29.8689 44.4099 29.375 43.1667 29.375H38.4792C38.4792 29.375 32.0981 29.375 25.9576 24.2249C25.821 24.11 25.6545 24.0364 25.4775 24.0129C25.3006 23.9894 25.1206 24.0168 24.9587 24.0921C24.7969 24.1674 24.6599 24.2873 24.5639 24.4378C24.4678 24.5883 24.4168 24.763 24.4167 24.9415V43.1835C24.4168 43.362 24.4678 43.5368 24.5639 43.6872C24.6599 43.8377 24.7969 43.9576 24.9587 44.0329C25.1206 44.1082 25.3006 44.1357 25.4775 44.1121C25.6545 44.0886 25.821 44.0151 25.9576 43.9001C32.0981 38.75 38.4792 38.75 38.4792 38.75H43.1667Z" stroke="white" stroke-width="3" stroke-linecap="round" stroke-linejoin="round"/>
</svg>
