<svg width="50" height="50" viewBox="0 0 50 50" fill="none" xmlns="http://www.w3.org/2000/svg">
<rect width="50" height="50" rx="25" fill="#6EA4FC"/>
<path d="M14.7021 20.6166L14.5532 20.3984H14.2891H13.9375H13.4375V20.8984C13.4375 21.3957 13.5482 21.8981 13.7567 22.4021L13.7567 22.4021L13.7592 22.4079C13.9563 22.8678 14.1732 23.2784 14.4119 23.6364C14.412 23.6365 14.412 23.6366 14.4121 23.6367L20.3611 32.5836C20.44 32.7094 20.5264 32.8351 20.6152 32.9239L20.6502 32.9589L20.6914 32.9863C20.8674 33.1037 21.073 33.1172 21.2031 33.1172C21.4904 33.1172 21.7586 33.0096 21.9559 32.7807C22.0793 32.6395 22.1936 32.4899 22.2988 32.332L22.3828 32.2061V32.0547C22.3828 31.9064 22.3967 31.667 22.4276 31.3265L22.4278 31.3246C22.4594 30.9616 22.4908 30.5523 22.5223 30.0969C22.5534 29.6453 22.5845 29.1782 22.6157 28.6957C22.6622 28.1986 22.7012 27.7315 22.7325 27.2944C22.7792 26.8578 22.8183 26.4589 22.8497 26.098C22.8807 25.7415 22.9104 25.4951 22.9372 25.3473L22.9416 25.3234L22.9436 25.2993C22.9576 25.131 22.9863 24.9054 23.0314 24.6192C23.094 24.3057 23.149 24.0069 23.1963 23.7228C23.2373 23.4767 23.2777 23.2651 23.3173 23.0868L29.6201 32.0468C29.6697 32.1285 29.7216 32.2062 29.7751 32.2717C29.8037 32.3067 29.8398 32.3467 29.883 32.3842C29.9221 32.4181 29.9927 32.4725 30.0919 32.5056L30.1101 32.5117L30.1287 32.5163C30.2573 32.5485 30.4225 32.5547 30.5781 32.5547C30.7114 32.5547 30.8444 32.5452 30.977 32.5262C31.1564 32.5006 31.3139 32.4111 31.428 32.2717C31.5294 32.1477 31.5793 32.006 31.6052 31.8828L33.7828 22.9149L33.7828 22.9149L33.785 22.9053C33.8618 22.5595 34.0252 22.198 34.2908 21.8203C34.5994 21.3883 34.9078 20.972 35.2159 20.5715C35.5498 20.1421 35.8459 19.7341 36.1035 19.3477L36.1036 19.3477L36.1086 19.3398C36.3835 18.9103 36.5625 18.4711 36.5625 18.0391C36.5625 17.8082 36.5306 17.5642 36.4199 17.3533C36.3258 17.1432 36.1496 17.0238 35.9885 16.9624C35.8258 16.9005 35.6459 16.8828 35.4766 16.8828C35.2961 16.8828 35.1061 16.9587 34.9688 17.0197L34.9584 17.0243L34.9483 17.0293C34.8729 17.067 34.7989 17.1086 34.7328 17.1548C34.6731 17.1966 34.5875 17.2643 34.5215 17.3633C34.4113 17.5285 34.2599 17.7999 34.0723 18.1593C33.8834 18.5215 33.6867 18.9069 33.4825 19.3155L33.4824 19.3154L33.4789 19.3227C33.2926 19.711 33.1062 20.0914 32.92 20.4639L32.9199 20.4639L32.9161 20.4718C32.7441 20.8314 32.6206 21.1023 32.5514 21.2752L32.5438 21.2943L32.5377 21.3139C32.4762 21.5138 32.3755 21.8316 32.2349 22.2689C32.0939 22.7076 31.9373 23.2009 31.7652 23.7485L31.765 23.7485L31.7614 23.7611C31.6048 24.3093 31.4404 24.8964 31.2683 25.5223C31.0975 26.1278 30.9268 26.7097 30.7562 27.268L30.7561 27.2679L30.7536 27.2767L30.7527 27.2799L30.7518 27.2831L30.7509 27.2863L30.75 27.2895L30.749 27.2927L30.7481 27.2959L30.7472 27.2991L30.7463 27.3023L30.7454 27.3055L30.7445 27.3087L30.7436 27.3119L30.7427 27.3151L30.7417 27.3183L30.7408 27.3214L30.7399 27.3246L30.739 27.3278L30.7381 27.331L30.7372 27.3342L30.7363 27.3374L30.7354 27.3405L30.7345 27.3437L30.7336 27.3469L30.7327 27.3501L30.7317 27.3532L30.7308 27.3564L30.7299 27.3596L30.729 27.3628L30.7281 27.3659L30.7272 27.3691L30.7263 27.3723L30.7254 27.3754L30.7245 27.3786L30.7236 27.3818L30.7227 27.3849L30.7218 27.3881L30.7209 27.3912L30.72 27.3944L30.7191 27.3976L30.7182 27.4007L30.7173 27.4039L30.7164 27.407L30.7155 27.4102L30.7146 27.4133L30.7137 27.4165L30.7128 27.4196L30.7119 27.4228L30.711 27.4259L30.7101 27.4291L30.7092 27.4322L30.7083 27.4354L30.7074 27.4385L30.7065 27.4416L30.7056 27.4448L30.7047 27.4479L30.7038 27.451L30.7029 27.4542L30.702 27.4573L30.7011 27.4604L30.7002 27.4636L30.6993 27.4667L30.6984 27.4698L30.6975 27.473L30.6966 27.4761L30.6958 27.4792L30.6949 27.4823L30.694 27.4855L30.6931 27.4886L30.6922 27.4917L30.6913 27.4948L30.6904 27.4979L30.6895 27.5011L30.6886 27.5042L30.6877 27.5073L30.6868 27.5104L30.686 27.5135L30.6851 27.5166L30.6842 27.5197L30.6833 27.5228L30.6824 27.5259L30.6815 27.529L30.6806 27.5321L30.6797 27.5352L30.6789 27.5384L30.678 27.5415L30.6771 27.5445L30.6762 27.5476L30.6753 27.5507L30.6744 27.5538L30.6735 27.5569L30.6727 27.56L30.6718 27.5631L30.6709 27.5662L30.67 27.5693L30.6691 27.5724L30.6683 27.5755L30.6674 27.5786L30.6665 27.5816L30.6656 27.5847L30.6647 27.5878L30.6638 27.5909L30.663 27.594L30.6621 27.597L30.6612 27.6001L30.6603 27.6032L30.6595 27.6063L30.6586 27.6093L30.6577 27.6124L30.6568 27.6155L30.6559 27.6185L30.6551 27.6216L30.6542 27.6247L30.6533 27.6277L30.6524 27.6308L30.6516 27.6339L30.6507 27.6369L30.6498 27.64L30.6489 27.643L30.6481 27.6461L30.6472 27.6492L30.6463 27.6522L30.6455 27.6553L30.6446 27.6583L30.6437 27.6614L30.6428 27.6644L30.642 27.6675L30.6411 27.6705L30.6402 27.6736L30.6394 27.6766L30.6385 27.6796L30.6376 27.6827L30.6367 27.6857L30.6359 27.6888L30.635 27.6918L30.6341 27.6948L30.6333 27.6979L30.6324 27.7009L30.6315 27.704L30.6307 27.707L30.6298 27.71L30.6289 27.713L30.6281 27.7161L30.6272 27.7191L30.6263 27.7221L30.6255 27.7252L30.6246 27.7282L30.6238 27.7312L30.6229 27.7342L30.622 27.7372L30.6212 27.7403L30.6203 27.7433L30.6194 27.7463L30.6186 27.7493L30.6177 27.7523L30.6169 27.7553L30.616 27.7583L30.6151 27.7613L30.6143 27.7644L30.6134 27.7674L30.6126 27.7704L30.6117 27.7734L30.6108 27.7764L30.61 27.7794L30.6091 27.7824L30.6083 27.7854L30.6074 27.7884L30.6066 27.7914L30.6057 27.7944L30.6049 27.7974L30.604 27.8004L30.6031 27.8034L30.6023 27.8063L30.6014 27.8093L30.6006 27.8123L30.5997 27.8153L30.5989 27.8183L30.598 27.8213L30.5972 27.8243L30.5963 27.8272L30.5955 27.8302L30.5946 27.8332L30.5938 27.8362L30.5929 27.8392L30.5921 27.8421L30.5912 27.8451L30.5904 27.8481L30.5895 27.8511L30.5887 27.854L30.5878 27.857L30.587 27.86L30.5861 27.8629L30.5853 27.8659L30.5844 27.8689L30.5836 27.8718L30.5827 27.8748L30.5819 27.8778L30.581 27.8807L30.5802 27.8837L30.5793 27.8866L30.5785 27.8896L30.5777 27.8925L30.5768 27.8955L30.576 27.8984L30.5751 27.9014L30.5743 27.9043L30.5734 27.9073L30.5726 27.9102L30.5718 27.9132L30.5709 27.9161L30.5701 27.9191L30.5692 27.922L30.5684 27.925L30.5676 27.9279L30.5667 27.9308L30.5659 27.9338L30.565 27.9367L30.5642 27.9396L30.5634 27.9426L30.5625 27.9455L30.5617 27.9484L30.5609 27.9514L30.56 27.9543L30.5592 27.9572L30.5583 27.9601L30.5575 27.9631L30.5567 27.966L30.5558 27.9689L30.555 27.9718L30.5542 27.9748L30.5533 27.9777L30.5525 27.9806L30.5517 27.9835L30.5508 27.9864L30.55 27.9893L30.5492 27.9922L30.5483 27.9952L30.5475 27.9981L30.5467 28.001L30.5458 28.0039L30.545 28.0068L30.5442 28.0097L30.5434 28.0126L30.5425 28.0155L30.5417 28.0184L30.5409 28.0213L30.54 28.0242L30.5392 28.0271L30.5384 28.03L30.5376 28.0329L30.5367 28.0358L30.5359 28.0387L30.5351 28.0416L30.5343 28.0445L30.5334 28.0473L30.5326 28.0502L30.5318 28.0531L30.531 28.056L30.5301 28.0589L30.5293 28.0618L30.5285 28.0646L30.5277 28.0675L30.5268 28.0704L30.526 28.0733L30.5252 28.0762L30.5244 28.079L30.5236 28.0819L30.5227 28.0848L30.5219 28.0876L30.5211 28.0905L30.5203 28.0934L30.5195 28.0963L30.5186 28.0991L30.5178 28.102L30.517 28.1048L30.5162 28.1077L30.5154 28.1106L30.5145 28.1134L30.5137 28.1163L30.5129 28.1191L30.5121 28.122L30.5113 28.1249L30.5105 28.1277L30.5097 28.1306L30.5088 28.1334L30.508 28.1363L30.5072 28.1391L30.5064 28.142L30.5056 28.1448L30.5048 28.1476L30.504 28.1505L30.5031 28.1533L30.5023 28.1562L30.5015 28.159L30.5007 28.1618L30.4999 28.1647L30.4991 28.1675L30.4983 28.1704L30.4975 28.1732L30.4967 28.176L30.4959 28.1789L30.495 28.1817L30.4942 28.1845L30.4934 28.1873L30.4926 28.1902L30.4918 28.193L30.491 28.1958L30.4902 28.1986L30.4894 28.2015L30.4886 28.2043L30.4878 28.2071L30.487 28.2099L30.4862 28.2127L30.4854 28.2155L30.4846 28.2183L30.4838 28.2212L30.483 28.224L30.4822 28.2268L30.4814 28.2296L30.4806 28.2324L30.4798 28.2352L30.479 28.238L30.4782 28.2408L30.4774 28.2436L30.4766 28.2464L30.4758 28.2492L30.475 28.252L30.4742 28.2548L30.4734 28.2576L30.4726 28.2604L30.4718 28.2632L30.471 28.266L30.4702 28.2688L30.4694 28.2716L30.4686 28.2743L30.4678 28.2771L30.467 28.2799L30.4662 28.2827L30.4654 28.2855L30.4646 28.2883L30.4638 28.2911L30.463 28.2938L30.4622 28.2966L30.4614 28.2994L30.4606 28.3022L30.4598 28.3049L30.459 28.3077L30.4582 28.3105L30.4575 28.3133L30.4567 28.316L30.4559 28.3188L30.4551 28.3216L30.4543 28.3243L30.4535 28.3271L30.4527 28.3298L30.4519 28.3326L30.4511 28.3354L30.4503 28.3381L30.4496 28.3409L30.4488 28.3436L30.448 28.3464L30.4472 28.3492L30.4464 28.3519L30.4456 28.3547L30.4448 28.3574L30.4441 28.3602L30.4433 28.3629L30.4425 28.3657L30.4417 28.3684L30.4409 28.3711L30.4401 28.3739L30.4393 28.3766L30.4386 28.3794L30.4378 28.3821L30.437 28.3848L30.4362 28.3876L30.4354 28.3903L30.4347 28.3931L30.4339 28.3958L30.4331 28.3985L30.4323 28.4013L30.4315 28.404L30.4308 28.4067L30.43 28.4094L30.4292 28.4122L30.4284 28.4149L30.4276 28.4176L30.4269 28.4203L30.4261 28.4231L30.4253 28.4258L30.4245 28.4285L30.4238 28.4312L30.423 28.4339L30.4222 28.4366L30.4214 28.4393L30.4207 28.4421L30.4199 28.4448L30.4191 28.4475L30.4183 28.4502L30.4176 28.4529L30.4168 28.4556L30.416 28.4583L30.4152 28.461L30.4145 28.4637L30.4137 28.4664L30.4129 28.4691L30.4122 28.4718L30.4114 28.4745L30.4106 28.4772L30.4098 28.4799L30.4091 28.4826L30.4083 28.4853L30.4075 28.488L30.4068 28.4907L30.406 28.4933L30.4052 28.496L30.4045 28.4987L30.4037 28.5014L30.4029 28.5041L30.4022 28.5068L30.4014 28.5094L30.4006 28.5121L30.3999 28.5148L30.3991 28.5175L30.3983 28.5202L30.3976 28.5228L30.3968 28.5255L30.396 28.5282L30.3953 28.5308L30.3945 28.5335L30.3938 28.5362L30.393 28.5389L30.3922 28.5415L30.3915 28.5442L30.3907 28.5468L30.39 28.5495L30.3892 28.5522L30.3884 28.5548L30.3877 28.5575L30.3869 28.5601L30.3862 28.5628L30.3854 28.5654L30.3846 28.5681L30.3839 28.5708L30.3831 28.5734L30.3824 28.5761L30.3816 28.5787L30.3809 28.5813L30.3801 28.584L30.3793 28.5866L30.3786 28.5893L30.3778 28.5919L30.3771 28.5946L30.3763 28.5972L30.3756 28.5998L30.3748 28.6025L30.3741 28.6051L30.3733 28.6077L30.3726 28.6104L30.3718 28.613L30.3711 28.6156L30.3703 28.6183L30.3696 28.6209L30.3688 28.6235L30.3681 28.6262L30.3673 28.6288L30.3666 28.6314L30.3658 28.634L30.3651 28.6366L30.3643 28.6393L30.3636 28.6419L30.3628 28.6445L30.3621 28.6471L30.3613 28.6497L30.3606 28.6523L30.3598 28.6549L30.3591 28.6576L30.3583 28.6602L30.3576 28.6628L30.3568 28.6654L30.3561 28.668L30.3554 28.6706L30.3546 28.6732L30.3539 28.6758L30.3531 28.6784L30.3524 28.681L30.3516 28.6836L30.3509 28.6862L30.3502 28.6888L30.3494 28.6914L30.3487 28.694L30.3479 28.6966L30.3472 28.6992L30.3465 28.7017L30.3457 28.7043L30.345 28.7069L30.3442 28.7095L30.3435 28.7121L30.3428 28.7147L30.342 28.7173L30.3413 28.7198L30.3406 28.7224L30.3398 28.725L30.3391 28.7276L30.3383 28.7301L30.3376 28.7327L30.3369 28.7353L30.3361 28.7379L30.3354 28.7404L30.3347 28.743L30.3339 28.7456L30.3332 28.7481L30.3325 28.7507L30.3317 28.7533L30.3294 28.7613L30.3274 28.7694C30.2516 29.0725 30.1901 29.3261 30.1432 29.5289C29.6124 28.9059 29.0961 28.2526 28.5944 27.5687C28.0987 26.8561 27.6107 26.1357 27.1304 25.4075C26.664 24.6768 26.2053 23.9539 25.7544 23.2387C25.3156 22.5023 24.8837 21.8189 24.4586 21.1888C24.3933 21.0836 24.3451 20.9917 24.3111 20.9124C24.2538 20.7787 24.1833 20.6527 24.0965 20.5395C23.9833 20.3675 23.8203 20.2516 23.6347 20.1897C23.4692 20.1346 23.2841 20.1172 23.1016 20.1172C22.9559 20.1172 22.8045 20.1263 22.6479 20.1437C22.4841 20.1619 22.3157 20.2272 22.1796 20.3632C22.0482 20.4947 21.9841 20.6551 21.955 20.8004L21.9534 20.8083L21.9521 20.8162L21.9519 20.8173L21.9517 20.8184L21.9516 20.8195L21.9514 20.8207L21.9512 20.8218L21.951 20.8229L21.9508 20.824L21.9506 20.8251L21.9504 20.8263L21.9503 20.8274L21.9501 20.8285L21.9499 20.8297L21.9497 20.8308L21.9495 20.8319L21.9493 20.8331L21.9491 20.8342L21.9489 20.8354L21.9487 20.8365L21.9485 20.8377L21.9483 20.8389L21.9482 20.84L21.948 20.8412L21.9478 20.8424L21.9476 20.8435L21.9474 20.8447L21.9472 20.8459L21.947 20.8471L21.9468 20.8483L21.9466 20.8495L21.9464 20.8506L21.9462 20.8518L21.946 20.853L21.9458 20.8542L21.9456 20.8555L21.9454 20.8567L21.9452 20.8579L21.945 20.8591L21.9448 20.8603L21.9446 20.8615L21.9444 20.8628L21.9442 20.864L21.944 20.8652L21.9437 20.8665L21.9435 20.8677L21.9433 20.8689L21.9431 20.8702L21.9429 20.8714L21.9427 20.8727L21.9425 20.8739L21.9423 20.8752L21.9421 20.8765L21.9419 20.8777L21.9417 20.879L21.9414 20.8803L21.9412 20.8815L21.941 20.8828L21.9408 20.8841L21.9406 20.8854L21.9404 20.8867L21.9402 20.8879L21.9399 20.8892L21.9397 20.8905L21.9395 20.8918L21.9393 20.8931L21.9391 20.8944L21.9389 20.8958L21.9386 20.8971L21.9384 20.8984L21.9382 20.8997L21.938 20.901L21.9378 20.9024L21.9375 20.9037L21.9373 20.905L21.9371 20.9063L21.9369 20.9077L21.9367 20.909L21.9364 20.9104L21.9362 20.9117L21.936 20.9131L21.9358 20.9144L21.9355 20.9158L21.9353 20.9171L21.9351 20.9185L21.9348 20.9199L21.9346 20.9212L21.9344 20.9226L21.9342 20.924L21.9339 20.9254L21.9337 20.9268L21.9335 20.9282L21.9332 20.9295L21.933 20.9309L21.9328 20.9323L21.9325 20.9337L21.9323 20.9351L21.9321 20.9365L21.9318 20.9379L21.9316 20.9394L21.9314 20.9408L21.9311 20.9422L21.9309 20.9436L21.9306 20.945L21.9304 20.9465L21.9302 20.9479L21.9299 20.9493L21.9297 20.9508L21.9295 20.9522L21.9292 20.9537L21.929 20.9551L21.9287 20.9566L21.9285 20.958L21.9282 20.9595L21.928 20.9609L21.9278 20.9624L21.9275 20.9639L21.9273 20.9653L21.927 20.9668L21.9268 20.9683L21.9265 20.9698L21.9263 20.9712L21.926 20.9727L21.9258 20.9742L21.9255 20.9757L21.9253 20.9772L21.925 20.9787L21.9248 20.9802L21.9245 20.9817L21.9243 20.9832L21.924 20.9847L21.9238 20.9863L21.9235 20.9878L21.9233 20.9893L21.923 20.9908L21.9228 20.9924L21.9225 20.9939L21.9223 20.9954L21.922 20.997L21.9217 20.9985L21.9215 21L21.9212 21.0016L21.921 21.0031L21.9207 21.0047L21.9204 21.0063L21.9202 21.0078L21.9199 21.0094L21.9197 21.0109L21.9194 21.0125L21.9191 21.0141L21.9189 21.0157L21.9186 21.0172L21.9184 21.0188L21.9181 21.0204L21.9178 21.022L21.9176 21.0236L21.9173 21.0252L21.917 21.0268L21.9168 21.0284L21.9165 21.03L21.9162 21.0316L21.916 21.0332L21.9157 21.0348L21.9154 21.0365L21.9151 21.0381L21.9149 21.0397L21.9146 21.0413L21.9143 21.043L21.9141 21.0446L21.9138 21.0462L21.9135 21.0479L21.9132 21.0495L21.913 21.0512L21.9127 21.0528L21.9124 21.0545L21.9121 21.0561L21.9119 21.0578L21.9116 21.0594L21.9113 21.0611L21.911 21.0628L21.9107 21.0645L21.9105 21.0661L21.9102 21.0678L21.9099 21.0695L21.9096 21.0712L21.9093 21.0729L21.9091 21.0746L21.9088 21.0763L21.9085 21.078L21.9082 21.0797L21.9079 21.0814L21.9076 21.0831L21.9074 21.0848L21.9071 21.0865L21.9068 21.0882L21.9065 21.0899L21.9062 21.0917L21.9059 21.0934L21.9056 21.0951L21.9053 21.0969L21.9051 21.0986L21.9048 21.1003L21.9045 21.1021L21.9042 21.1038L21.9039 21.1056L21.9036 21.1073L21.9033 21.1091L21.903 21.1108L21.9027 21.1126L21.9024 21.1144L21.9021 21.1161L21.9018 21.1179L21.9015 21.1197L21.9012 21.1215L21.9009 21.1233L21.9006 21.125L21.9003 21.1268L21.9001 21.1286L21.8998 21.1304L21.8995 21.1322L21.8992 21.134L21.8989 21.1358L21.8985 21.1376L21.8982 21.1394L21.8979 21.1413L21.8976 21.1431L21.8973 21.1449L21.897 21.1467L21.8967 21.1486L21.8964 21.1504L21.8961 21.1522L21.8958 21.1541L21.8955 21.1559L21.8952 21.1577L21.8949 21.1596L21.8946 21.1614L21.8943 21.1633L21.894 21.1651L21.8937 21.167L21.8933 21.1689L21.893 21.1707L21.8927 21.1726L21.8924 21.1745L21.8921 21.1764L21.8918 21.1782L21.8915 21.1801L21.8912 21.182L21.8908 21.1839L21.8905 21.1858L21.8902 21.1877L21.8899 21.1896L21.8896 21.1915L21.8893 21.1934L21.8889 21.1953L21.8886 21.1972L21.8883 21.1991L21.888 21.201L21.8877 21.203L21.8873 21.2049L21.887 21.2068L21.8867 21.2087L21.8864 21.2107L21.8861 21.2126L21.8857 21.2146L21.8854 21.2165L21.8851 21.2184L21.8848 21.2204L21.8844 21.2223L21.8841 21.2243L21.8838 21.2263L21.8835 21.2282L21.8831 21.2302L21.8828 21.2322L21.8825 21.2341L21.8821 21.2361L21.8818 21.2381L21.8815 21.2401L21.8811 21.2421L21.8808 21.244L21.8805 21.246L21.8802 21.248L21.8798 21.25L21.8795 21.252L21.8791 21.254L21.8788 21.256L21.8785 21.2581L21.8781 21.2601L21.8778 21.2621L21.8775 21.2641L21.8771 21.2661L21.8768 21.2682L21.8765 21.2702L21.8761 21.2722L21.8758 21.2743L21.8754 21.2763L21.8751 21.2783L21.8748 21.2804L21.8744 21.2824L21.8741 21.2845L21.8737 21.2865L21.8734 21.2886L21.873 21.2907L21.8727 21.2927L21.8724 21.2948L21.872 21.2969L21.8717 21.2989L21.8713 21.301L21.871 21.3031L21.8706 21.3052L21.8703 21.3073L21.8699 21.3094L21.8696 21.3115L21.8692 21.3136L21.8689 21.3157L21.8685 21.3178L21.8682 21.3199L21.8678 21.322L21.8675 21.3241L21.8671 21.3262L21.8668 21.3283L21.8664 21.3305L21.8661 21.3326L21.8657 21.3347L21.8653 21.3369L21.865 21.339L21.8646 21.3411L21.8643 21.3433L21.8639 21.3454L21.8636 21.3476L21.8632 21.3497L21.8628 21.3519L21.8625 21.354L21.8621 21.3562L21.8618 21.3584L21.8614 21.3605L21.861 21.3627L21.8607 21.3649L21.8603 21.3671L21.8599 21.3692L21.8596 21.3714L21.8592 21.3736L21.8589 21.3758L21.8585 21.378L21.8581 21.3802L21.8578 21.3824L21.8574 21.3846L21.857 21.3868L21.8567 21.389L21.8563 21.3912L21.8559 21.3935L21.8555 21.3957L21.8552 21.3979L21.8548 21.4001L21.8544 21.4024L21.8541 21.4046L21.8537 21.4068L21.8533 21.4091L21.8529 21.4113L21.8526 21.4136L21.8522 21.4158L21.8518 21.4181L21.8514 21.4203L21.8511 21.4226L21.8507 21.4248L21.8503 21.4271L21.8499 21.4294L21.8495 21.4316L21.8492 21.4339L21.8488 21.4362L21.8484 21.4385L21.848 21.4408L21.8476 21.443L21.8473 21.4453L21.8469 21.4476L21.8465 21.4499L21.8461 21.4522L21.8457 21.4545L21.8453 21.4568L21.845 21.4592L21.8446 21.4615L21.8442 21.4638L21.8438 21.4661L21.8434 21.4684L21.843 21.4708L21.8426 21.4731L21.8423 21.4754L21.8419 21.4778L21.8415 21.4801L21.8411 21.4824L21.8407 21.4848L21.8403 21.4871L21.8399 21.4895L21.8395 21.4918L21.8391 21.4942L21.8387 21.4966L21.8383 21.4989L21.8379 21.5013L21.8375 21.5037L21.8371 21.506L21.8368 21.5084L21.8364 21.5108L21.836 21.5132L21.8356 21.5156L21.8352 21.518L21.8348 21.5204L21.8344 21.5228L21.834 21.5252L21.8336 21.5276L21.8332 21.53L21.8328 21.5324L21.8324 21.5348L21.832 21.5372L21.8316 21.5396L21.8311 21.542L21.8307 21.5445L21.8303 21.5469L21.8299 21.5493L21.8295 21.5518L21.8291 21.5542L21.8287 21.5567L21.8283 21.5591L21.8279 21.5615L21.8275 21.564L21.8271 21.5665L21.8267 21.5689L21.8263 21.5714L21.8258 21.5738L21.8254 21.5763L21.825 21.5788L21.8246 21.5813L21.8242 21.5837L21.8238 21.5862L21.8234 21.5887L21.823 21.5912L21.8225 21.5937L21.8221 21.5962L21.8217 21.5987L21.8213 21.6012L21.8209 21.6037L21.8205 21.6062L21.82 21.6087L21.8196 21.6112L21.8192 21.6137L21.8188 21.6162L21.8184 21.6188L21.8179 21.6213L21.8175 21.6238L21.8171 21.6263L21.8167 21.6289L21.8163 21.6314L21.8158 21.634L21.8154 21.6365L21.815 21.6391L21.8146 21.6416L21.8141 21.6442L21.8137 21.6467L21.8133 21.6493L21.8128 21.6519L21.8124 21.6544L21.812 21.657L21.8116 21.6596L21.8111 21.6621L21.8107 21.6647L21.8103 21.6673L21.8098 21.6699L21.8094 21.6725L21.809 21.6751L21.8085 21.6777L21.8081 21.6803L21.8077 21.6829L21.8072 21.6855L21.8068 21.6881L21.8064 21.6907L21.8059 21.6933L21.8055 21.6959L21.8051 21.6986L21.8046 21.7012L21.8042 21.7038L21.8037 21.7065L21.8033 21.7091L21.8029 21.7117L21.8024 21.7144L21.802 21.717L21.8015 21.7197L21.8011 21.7223L21.8007 21.725L21.8002 21.7276L21.7998 21.7303L21.7993 21.733L21.7989 21.7356L21.7984 21.7383L21.798 21.741L21.7975 21.7436L21.7971 21.7463L21.7967 21.749L21.7962 21.7517L21.7958 21.7544L21.7953 21.7571L21.7949 21.7598L21.7944 21.7625L21.794 21.7652L21.7935 21.7679L21.7931 21.7706L21.7926 21.7733L21.7922 21.776L21.7917 21.7787L21.7912 21.7815L21.7908 21.7842L21.7903 21.7869L21.7899 21.7897L21.7894 21.7924L21.789 21.7951L21.7885 21.7979L21.7881 21.8006C21.7104 22.2667 21.6249 22.7565 21.5315 23.2699C21.4374 23.7877 21.351 24.2823 21.2724 24.7537C21.1946 25.2206 21.1446 25.5585 21.1271 25.7516L21.125 25.7742V25.7969V26.0427C21.0787 26.3689 21.0253 26.7743 20.9648 27.2583L20.9646 27.2583L20.9633 27.2722C20.917 27.7503 20.863 28.2205 20.8014 28.6828C20.7655 28.9432 20.7322 29.1855 20.7014 29.4098L14.7021 20.6166Z" fill="white" stroke="white"/>
</svg>
